# xmcd CD database file
#
# Track frame offsets:
#	150
#	14216
#	35946
#	63854
#	83879
#
# Disc length: 1327 seconds
#
# Revision: 0
# Processed by: cddbd v1.5.1PL0 Copyright (c) Steve Scherf et al.
# Submitted via: CDex 1.50beta10
#
DISCID=41052d05
DTITLE=Blasterhead - RAVE-O-LUTION DMG - E.P.
DYEAR=2005
DGENRE=Electronic
TTITLE0=It's a fine day?
TTITLE1=RAVE-O-LUTION DMG
TTITLE2=Gunpey Yokoi is still alive
TTITLE3=TurboR-909
TTITLE4=Killbots (Remixed by covox)
EXTD=YEAR: 2005
EXTT0=
EXTT1=
EXTT2=
EXTT3=
EXTT4=
PLAYORDER=
